<svg xmlns="http://www.w3.org/2000/svg" version="1.1" xmlns:xlink="http://www.w3.org/1999/xlink" xmlns:svgjs="http://svgjs.dev/svgjs" width="1920" height="1080" preserveAspectRatio="none" viewBox="0 0 1920 1080">
    <g mask="url(&quot;#SvgjsMask2836&quot;)" fill="none">
        <rect width="1920" height="1080" x="0" y="0" fill="rgba(6, 20, 27, 1)"></rect>
        <use xlink:href="#SvgjsSymbol2843" x="0" y="0"></use>
        <use xlink:href="#SvgjsSymbol2843" x="0" y="720"></use>
        <use xlink:href="#SvgjsSymbol2843" x="720" y="0"></use>
        <use xlink:href="#SvgjsSymbol2843" x="720" y="720"></use>
        <use xlink:href="#SvgjsSymbol2843" x="1440" y="0"></use>
        <use xlink:href="#SvgjsSymbol2843" x="1440" y="720"></use>
    </g>
    <defs>
        <mask id="SvgjsMask2836">
            <rect width="1920" height="1080" fill="#ffffff"></rect>
        </mask>
        <path d="M-1 0 a1 1 0 1 0 2 0 a1 1 0 1 0 -2 0z" id="SvgjsPath2839"></path>
        <path d="M-3 0 a3 3 0 1 0 6 0 a3 3 0 1 0 -6 0z" id="SvgjsPath2840"></path>
        <path d="M-5 0 a5 5 0 1 0 10 0 a5 5 0 1 0 -10 0z" id="SvgjsPath2837"></path>
        <path d="M2 -2 L-2 2z" id="SvgjsPath2841"></path>
        <path d="M6 -6 L-6 6z" id="SvgjsPath2838"></path>
        <path d="M30 -30 L-30 30z" id="SvgjsPath2842"></path>
    </defs>
    <symbol id="SvgjsSymbol2843">
        <use xlink:href="#SvgjsPath2837" x="30" y="30" stroke="#1c538e"></use>
        <use xlink:href="#SvgjsPath2837" x="30" y="90" stroke="#1c538e"></use>
        <use xlink:href="#SvgjsPath2838" x="30" y="150" stroke="#1c538e"></use>
        <use xlink:href="#SvgjsPath2839" x="30" y="210" stroke="#1c538e"></use>
        <use xlink:href="#SvgjsPath2838" x="30" y="270" stroke="#1c538e"></use>
        <use xlink:href="#SvgjsPath2840" x="30" y="330" stroke="#1c538e"></use>
        <use xlink:href="#SvgjsPath2841" x="30" y="390" stroke="#1c538e"></use>
        <use xlink:href="#SvgjsPath2838" x="30" y="450" stroke="#1c538e"></use>
        <use xlink:href="#SvgjsPath2839" x="30" y="510" stroke="#1c538e"></use>
        <use xlink:href="#SvgjsPath2840" x="30" y="570" stroke="#1c538e"></use>
        <use xlink:href="#SvgjsPath2840" x="30" y="630" stroke="#1c538e"></use>
        <use xlink:href="#SvgjsPath2839" x="30" y="690" stroke="#1c538e"></use>
        <use xlink:href="#SvgjsPath2841" x="90" y="30" stroke="#1c538e"></use>
        <use xlink:href="#SvgjsPath2841" x="90" y="90" stroke="#1c538e"></use>
        <use xlink:href="#SvgjsPath2840" x="90" y="150" stroke="#1c538e"></use>
        <use xlink:href="#SvgjsPath2838" x="90" y="210" stroke="#1c538e"></use>
        <use xlink:href="#SvgjsPath2838" x="90" y="270" stroke="#1c538e"></use>
        <use xlink:href="#SvgjsPath2837" x="90" y="330" stroke="#1c538e"></use>
        <use xlink:href="#SvgjsPath2840" x="90" y="390" stroke="#1c538e"></use>
        <use xlink:href="#SvgjsPath2837" x="90" y="450" stroke="#1c538e"></use>
        <use xlink:href="#SvgjsPath2838" x="90" y="510" stroke="#1c538e"></use>
        <use xlink:href="#SvgjsPath2840" x="90" y="570" stroke="#1c538e"></use>
        <use xlink:href="#SvgjsPath2838" x="90" y="630" stroke="#1c538e"></use>
        <use xlink:href="#SvgjsPath2841" x="90" y="690" stroke="#1c538e"></use>
        <use xlink:href="#SvgjsPath2837" x="150" y="30" stroke="#1c538e"></use>
        <use xlink:href="#SvgjsPath2837" x="150" y="90" stroke="#1c538e"></use>
        <use xlink:href="#SvgjsPath2838" x="150" y="150" stroke="#1c538e"></use>
        <use xlink:href="#SvgjsPath2839" x="150" y="210" stroke="#1c538e"></use>
        <use xlink:href="#SvgjsPath2840" x="150" y="270" stroke="#1c538e"></use>
        <use xlink:href="#SvgjsPath2841" x="150" y="330" stroke="#1c538e"></use>
        <use xlink:href="#SvgjsPath2841" x="150" y="390" stroke="#1c538e"></use>
        <use xlink:href="#SvgjsPath2838" x="150" y="450" stroke="#1c538e"></use>
        <use xlink:href="#SvgjsPath2840" x="150" y="510" stroke="#1c538e"></use>
        <use xlink:href="#SvgjsPath2839" x="150" y="570" stroke="#1c538e"></use>
        <use xlink:href="#SvgjsPath2838" x="150" y="630" stroke="#1c538e"></use>
        <use xlink:href="#SvgjsPath2838" x="150" y="690" stroke="#1c538e"></use>
        <use xlink:href="#SvgjsPath2839" x="210" y="30" stroke="#1c538e"></use>
        <use xlink:href="#SvgjsPath2840" x="210" y="90" stroke="#1c538e"></use>
        <use xlink:href="#SvgjsPath2838" x="210" y="150" stroke="#1c538e"></use>
        <use xlink:href="#SvgjsPath2838" x="210" y="210" stroke="#1c538e"></use>
        <use xlink:href="#SvgjsPath2837" x="210" y="270" stroke="#1c538e"></use>
        <use xlink:href="#SvgjsPath2838" x="210" y="330" stroke="#1c538e"></use>
        <use xlink:href="#SvgjsPath2837" x="210" y="390" stroke="#1c538e"></use>
        <use xlink:href="#SvgjsPath2838" x="210" y="450" stroke="#1c538e"></use>
        <use xlink:href="#SvgjsPath2840" x="210" y="510" stroke="#1c538e"></use>
        <use xlink:href="#SvgjsPath2841" x="210" y="570" stroke="#1c538e"></use>
        <use xlink:href="#SvgjsPath2838" x="210" y="630" stroke="#1c538e"></use>
        <use xlink:href="#SvgjsPath2841" x="210" y="690" stroke="#1c538e"></use>
        <use xlink:href="#SvgjsPath2838" x="270" y="30" stroke="#1c538e"></use>
        <use xlink:href="#SvgjsPath2838" x="270" y="90" stroke="#1c538e"></use>
        <use xlink:href="#SvgjsPath2842" x="270" y="150" stroke="#1c538e" stroke-width="3"></use>
        <use xlink:href="#SvgjsPath2841" x="270" y="210" stroke="#1c538e"></use>
        <use xlink:href="#SvgjsPath2839" x="270" y="270" stroke="#1c538e"></use>
        <use xlink:href="#SvgjsPath2838" x="270" y="330" stroke="#1c538e"></use>
        <use xlink:href="#SvgjsPath2838" x="270" y="390" stroke="#1c538e"></use>
        <use xlink:href="#SvgjsPath2837" x="270" y="450" stroke="#1c538e"></use>
        <use xlink:href="#SvgjsPath2839" x="270" y="510" stroke="#1c538e"></use>
        <use xlink:href="#SvgjsPath2838" x="270" y="570" stroke="#1c538e"></use>
        <use xlink:href="#SvgjsPath2839" x="270" y="630" stroke="#1c538e"></use>
        <use xlink:href="#SvgjsPath2837" x="270" y="690" stroke="#1c538e"></use>
        <use xlink:href="#SvgjsPath2837" x="330" y="30" stroke="#1c538e"></use>
        <use xlink:href="#SvgjsPath2837" x="330" y="90" stroke="#1c538e"></use>
        <use xlink:href="#SvgjsPath2839" x="330" y="150" stroke="#1c538e"></use>
        <use xlink:href="#SvgjsPath2837" x="330" y="210" stroke="#1c538e"></use>
        <use xlink:href="#SvgjsPath2841" x="330" y="270" stroke="#1c538e"></use>
        <use xlink:href="#SvgjsPath2837" x="330" y="330" stroke="#1c538e"></use>
        <use xlink:href="#SvgjsPath2838" x="330" y="390" stroke="#1c538e"></use>
        <use xlink:href="#SvgjsPath2837" x="330" y="450" stroke="#1c538e"></use>
        <use xlink:href="#SvgjsPath2837" x="330" y="510" stroke="#1c538e"></use>
        <use xlink:href="#SvgjsPath2837" x="330" y="570" stroke="#1c538e"></use>
        <use xlink:href="#SvgjsPath2838" x="330" y="630" stroke="#1c538e"></use>
        <use xlink:href="#SvgjsPath2841" x="330" y="690" stroke="#1c538e"></use>
        <use xlink:href="#SvgjsPath2841" x="390" y="30" stroke="#1c538e"></use>
        <use xlink:href="#SvgjsPath2839" x="390" y="90" stroke="#1c538e"></use>
        <use xlink:href="#SvgjsPath2838" x="390" y="150" stroke="#1c538e"></use>
        <use xlink:href="#SvgjsPath2841" x="390" y="210" stroke="#1c538e"></use>
        <use xlink:href="#SvgjsPath2838" x="390" y="270" stroke="#1c538e"></use>
        <use xlink:href="#SvgjsPath2838" x="390" y="330" stroke="#1c538e"></use>
        <use xlink:href="#SvgjsPath2837" x="390" y="390" stroke="#1c538e"></use>
        <use xlink:href="#SvgjsPath2838" x="390" y="450" stroke="#1c538e"></use>
        <use xlink:href="#SvgjsPath2838" x="390" y="510" stroke="#1c538e"></use>
        <use xlink:href="#SvgjsPath2838" x="390" y="570" stroke="#1c538e"></use>
        <use xlink:href="#SvgjsPath2838" x="390" y="630" stroke="#1c538e"></use>
        <use xlink:href="#SvgjsPath2838" x="390" y="690" stroke="#1c538e"></use>
        <use xlink:href="#SvgjsPath2837" x="450" y="30" stroke="#1c538e"></use>
        <use xlink:href="#SvgjsPath2837" x="450" y="90" stroke="#1c538e"></use>
        <use xlink:href="#SvgjsPath2839" x="450" y="150" stroke="#1c538e"></use>
        <use xlink:href="#SvgjsPath2837" x="450" y="210" stroke="#1c538e"></use>
        <use xlink:href="#SvgjsPath2837" x="450" y="270" stroke="#1c538e"></use>
        <use xlink:href="#SvgjsPath2838" x="450" y="330" stroke="#1c538e"></use>
        <use xlink:href="#SvgjsPath2839" x="450" y="390" stroke="#1c538e"></use>
        <use xlink:href="#SvgjsPath2838" x="450" y="450" stroke="#1c538e"></use>
        <use xlink:href="#SvgjsPath2837" x="450" y="510" stroke="#1c538e"></use>
        <use xlink:href="#SvgjsPath2839" x="450" y="570" stroke="#1c538e"></use>
        <use xlink:href="#SvgjsPath2837" x="450" y="630" stroke="#1c538e"></use>
        <use xlink:href="#SvgjsPath2841" x="450" y="690" stroke="#1c538e"></use>
        <use xlink:href="#SvgjsPath2837" x="510" y="30" stroke="#1c538e"></use>
        <use xlink:href="#SvgjsPath2840" x="510" y="90" stroke="#1c538e"></use>
        <use xlink:href="#SvgjsPath2837" x="510" y="150" stroke="#1c538e"></use>
        <use xlink:href="#SvgjsPath2837" x="510" y="210" stroke="#1c538e"></use>
        <use xlink:href="#SvgjsPath2838" x="510" y="270" stroke="#1c538e"></use>
        <use xlink:href="#SvgjsPath2837" x="510" y="330" stroke="#1c538e"></use>
        <use xlink:href="#SvgjsPath2838" x="510" y="390" stroke="#1c538e"></use>
        <use xlink:href="#SvgjsPath2838" x="510" y="450" stroke="#1c538e"></use>
        <use xlink:href="#SvgjsPath2838" x="510" y="510" stroke="#1c538e"></use>
        <use xlink:href="#SvgjsPath2841" x="510" y="570" stroke="#1c538e"></use>
        <use xlink:href="#SvgjsPath2838" x="510" y="630" stroke="#1c538e"></use>
        <use xlink:href="#SvgjsPath2840" x="510" y="690" stroke="#1c538e"></use>
        <use xlink:href="#SvgjsPath2837" x="570" y="30" stroke="#1c538e"></use>
        <use xlink:href="#SvgjsPath2841" x="570" y="90" stroke="#1c538e"></use>
        <use xlink:href="#SvgjsPath2837" x="570" y="150" stroke="#1c538e"></use>
        <use xlink:href="#SvgjsPath2840" x="570" y="210" stroke="#1c538e"></use>
        <use xlink:href="#SvgjsPath2839" x="570" y="270" stroke="#1c538e"></use>
        <use xlink:href="#SvgjsPath2839" x="570" y="330" stroke="#1c538e"></use>
        <use xlink:href="#SvgjsPath2840" x="570" y="390" stroke="#1c538e"></use>
        <use xlink:href="#SvgjsPath2839" x="570" y="450" stroke="#1c538e"></use>
        <use xlink:href="#SvgjsPath2838" x="570" y="510" stroke="#1c538e"></use>
        <use xlink:href="#SvgjsPath2842" x="570" y="570" stroke="#1c538e" stroke-width="3"></use>
        <use xlink:href="#SvgjsPath2837" x="570" y="630" stroke="#1c538e"></use>
        <use xlink:href="#SvgjsPath2842" x="570" y="690" stroke="#1c538e" stroke-width="3"></use>
        <use xlink:href="#SvgjsPath2837" x="630" y="30" stroke="#1c538e"></use>
        <use xlink:href="#SvgjsPath2838" x="630" y="90" stroke="#1c538e"></use>
        <use xlink:href="#SvgjsPath2840" x="630" y="150" stroke="#1c538e"></use>
        <use xlink:href="#SvgjsPath2838" x="630" y="210" stroke="#1c538e"></use>
        <use xlink:href="#SvgjsPath2837" x="630" y="270" stroke="#1c538e"></use>
        <use xlink:href="#SvgjsPath2837" x="630" y="330" stroke="#1c538e"></use>
        <use xlink:href="#SvgjsPath2838" x="630" y="390" stroke="#1c538e"></use>
        <use xlink:href="#SvgjsPath2837" x="630" y="450" stroke="#1c538e"></use>
        <use xlink:href="#SvgjsPath2837" x="630" y="510" stroke="#1c538e"></use>
        <use xlink:href="#SvgjsPath2837" x="630" y="570" stroke="#1c538e"></use>
        <use xlink:href="#SvgjsPath2837" x="630" y="630" stroke="#1c538e"></use>
        <use xlink:href="#SvgjsPath2839" x="630" y="690" stroke="#1c538e"></use>
        <use xlink:href="#SvgjsPath2837" x="690" y="30" stroke="#1c538e"></use>
        <use xlink:href="#SvgjsPath2837" x="690" y="90" stroke="#1c538e"></use>
        <use xlink:href="#SvgjsPath2837" x="690" y="150" stroke="#1c538e"></use>
        <use xlink:href="#SvgjsPath2837" x="690" y="210" stroke="#1c538e"></use>
        <use xlink:href="#SvgjsPath2841" x="690" y="270" stroke="#1c538e"></use>
        <use xlink:href="#SvgjsPath2838" x="690" y="330" stroke="#1c538e"></use>
        <use xlink:href="#SvgjsPath2837" x="690" y="390" stroke="#1c538e"></use>
        <use xlink:href="#SvgjsPath2837" x="690" y="450" stroke="#1c538e"></use>
        <use xlink:href="#SvgjsPath2837" x="690" y="510" stroke="#1c538e"></use>
        <use xlink:href="#SvgjsPath2837" x="690" y="570" stroke="#1c538e"></use>
        <use xlink:href="#SvgjsPath2837" x="690" y="630" stroke="#1c538e"></use>
        <use xlink:href="#SvgjsPath2839" x="690" y="690" stroke="#1c538e"></use>
    </symbol>
</svg>